<svg height="128" viewBox="0 0 128 128" width="128" xmlns="http://www.w3.org/2000/svg"><g><path d="m64.109375 9.6777344c-19.14913 11.5980456-38.150599 23.1065786-55.5878906 33.6679686l.00391 37.873047 55.5839844 33.66211 55.587895-33.664063.002-37.873047zm0 17.4960936 30.285156 18.341797-13.236328 8.017578-17.042969-10.322265c-5.84785 3.546306-11.997379 7.26741-17.048828 10.326171l-13.24414-8.021484zm-39.798828 30.078125 8.3125 5.033203-8.3125 5.033203zm79.593753 0v10.054688l-8.300784-5.027344zm-39.794925 3.451172 2.605469 1.576172-2.605469 1.578125-2.605469-1.578125zm-17.048828 10.324219 17.048828 10.324218 17.048828-10.324218 13.236328 8.015625-30.285156 18.341797-30.287109-18.341797z" fill="#b4b4b4"/><path d="m64.10888 14.183871c-17.243157 10.446371-34.488263 20.889523-51.732637 31.333883l.0036 33.530103 51.728958 31.326513 51.734519-31.329297.002-33.529209zm0 8.485072 37.72574 22.846971-20.676504 12.522517-17.041879-10.320776c-5.682743 3.44204-11.366087 6.883089-17.049239 10.324455l-20.683856-12.526196zm-43.652229 27.743408 19.605979 11.873215-19.605979 11.873215zm87.300769.0019v23.731654l-19.594934-11.865857zm-43.64854 5.782974 10.044868 6.082838-10.044868 6.082838-10.04487-6.082838zm-17.049238 10.324439 17.049238 10.324455 17.049236-10.324455 20.676504 12.522517-37.72574 22.846969-37.725738-22.846969z" fill="#f7f5cf"/></g></svg>