<svg height="16" viewBox="0 0 16 16" width="16" xmlns="http://www.w3.org/2000/svg"><path d="m7.9589844 2c-.5302893.0806955-.9742293.4248431-1.4617481.6333903-1.6794483.8447682-3.3685689 1.675442-5.0421582 2.5287191-.3861056.2336574-.50424272.7130837-.4550781 1.1370662.0078 1.2868241-.0156104 2.5750032.011719 3.8609804.060977.496371.5219243.756649.9368533.932294 1.894124.944438 3.7842242 1.897366 5.6808694 2.836485.5978925.245916 1.120444-.228849 1.6424322-.446842 1.7494351-.876944 3.5023581-1.747865 5.2496101-2.628577.421422-.23603.523841-.745942.478516-1.1895716-.008866-1.277089.017894-2.5559535-.013672-3.8319132-.061864-.4940515-.522913-.7492677-.9349-.9244812-1.89409-.9445145-3.784293-1.8972133-5.6808181-2.8365996-.1301908-.0522584-.2714522-.0766072-.4116255-.0709504zm.0410156 2.1171875c1.2552083.6276042 2.510417 1.2552083 3.765625 1.8828125-.588542.2942708-1.177083.5885417-1.765625.8828125-.5993019-.2803716-1.1715527-.6283274-1.7901506-.8606667-.576556-.1074199-1.0436367.3254248-1.5475256.5290883-.2207746.1105261-.4415492.2210523-.6623238.3315784-.5878906-.2942708-1.1757813-.5885417-1.7636719-.8828125 1.2545573-.6276042 2.5091146-1.2552083 3.7636719-1.8828125zm-5 3.5c.2545573.1276042.5091146.2552083.7636719.3828125-.2545573.1276042-.5091146.2552083-.7636719.3828125 0-.2552083 0-.5104167 0-.765625zm10 0v.765625c-.254557-.1276042-.509115-.2552083-.763672-.3828125.254557-.1276042.509115-.2552083.763672-.3828125zm-7 1.5c.5993019.2803716 1.1715527.6283274 1.7901506.8606667.576556.1074198 1.0436367-.3254248 1.5475256-.5290883.2207746-.1105261.4415492-.2210523.6623238-.3315784.588542.2942708 1.177083.5885417 1.765625.8828125-1.255208.627604-2.5104167 1.255208-3.765625 1.882812-1.2552083-.627604-2.5104167-1.255208-3.765625-1.882812.5885417-.2942708 1.1770833-.5885417 1.765625-.8828125z" fill="#fc9c9c"/></svg>