<svg height="16" viewBox="0 0 16 16" width="16" xmlns="http://www.w3.org/2000/svg"><path d="m9.9908199 1.0025446c-.4392987.0470349-.8032026.3311327-1.2011719.5019531-1.0973843.5539149-2.2032734 1.0921764-3.2949219 1.65625-.3859108.2253984-.5017641.6937583-.4628906 1.1113281.00398.5768045.00592 1.1534478.00586 1.7304688h5.9941411c.552262.0000552.999945.4477381 1 1v2.1171875c.8409034-.420101 1.6830604-.8392905 2.5214834-1.2636719.389524-.2211536.522435-.6883238.478516-1.109375-.007684-.9658295.015458-1.9335086-.011719-2.8984375-.051182-.4263982-.406511-.7123431-.78125-.8613281-1.288351-.6399159-2.571307-1.2918274-3.863281-1.9238281-.123095-.0444364-.254044-.06471576-.3847661-.0605469zm.041016 2.1171875 1.763672.8828125-.763672.3828125c-.4246109-.2035698-.8813459-.5323766-1.369141-.3125-.2136473.0976632-.4199119.2091344-.6308594.3125l-.7636719-.3828125z" fill="#fc9c9c"/><g fill="#fff"><circle cx="5" cy="11" opacity=".998" r=".5"/><path d="m9 11c.0313744 1.112666-1.0103396 2.093563-2.1188506 1.996466-1.1127676-.034658-2.0295302-1.133173-1.8670239-2.233747.1006297-1.1088736 1.2519219-1.9583938 2.3407476-1.7309835.9334758.1538887 1.6592756 1.0218275 1.6451269 1.9682645zm-7-4c-.6375982-.0266449-1.11202641.6459232-.999945 1.2466311.00765 1.9739799-.0156121 3.9493529.011929 5.9224639.082131.550693.66958.917856 1.204407.830828 2.6461471-.0066 5.2930417.01321 7.9387182-.01125.586069-.07226.938836-.708279.844741-1.260906-.0064-1.960867.01316-3.9224867-.01114-5.8828783-.0714492-.5790946-.6969482-.9353887-1.2453759-.8448887-2.5811114 0-5.1622229 0-7.7433343 0zm.6660156 1c.3685021.0305969.7905746-.0965453 1.1004261.1616549.3723361.332646.2078751.8911516.2162226 1.3279658-.1097774.5065482-.6840521.5599913-1.1077009.5100397-.4230496.0869806-.9077353-.2303314-.8733945-.689323-.0018713-.4401237-.1063599-1.0558729.4087779-1.2601369.0803719-.0345559.1680978-.0525374.2556688-.0502005zm4.2832032 0c1.4963632-.0574778 2.8933415 1.1663467 3.0311986 2.657784.2032956 1.483613-.8794575 2.993808-2.3508738 3.275418-1.4567153.345809-3.0650906-.584859-3.4878977-2.022262-.4855009-1.416322.2847345-3.1073705 1.6742044-3.6677786.3572188-.153678.744548-.2367787 1.1333685-.2431614z" opacity=".998"/></g></svg>